# xmcd CD database file
#
# Track frame offsets:
#	150
#	20164
#	31549
#	52138
#	72531
#	92230
#	114814
#	133652
#	160223
#	174072
#	195664
#	217062
#	240262
#	263056
#
# Disc length: 3797 seconds
#
# Revision: 0
# Processed by: cddbd v1.5.2PL0 Copyright (c) Steve Scherf et al.
# Submitted via: CDex 1.70beta2
#
DISCID=bc0ed30e
DTITLE=OnFire Big Band - Jazz with Heat and Direction
DYEAR=2001
DGENRE=Jazz
TTITLE0=Gravy Train
TTITLE1=Why Do The Nations So Furiously Rage
TTITLE2=Come Sunday
TTITLE3=Mercy, Mercy, Mercy
TTITLE4=When The Roll Is Called Up Yonder
TTITLE5=A Quiet Place
TTITLE6=Abide With Me
TTITLE7=All At Me
TTITLE8=The 23rd Psalm
TTITLE9=Just A Closer Walk with Thee
TTITLE10=Jesus Loves Me
TTITLE11=Amazing Grace
TTITLE12=Goin' Up Yonder
TTITLE13=Cabin In The Corner
EXTD=YEAR: 2001
EXTT0=
EXTT1=
EXTT2=
EXTT3=
EXTT4=
EXTT5=
EXTT6=
EXTT7=
EXTT8=
EXTT9=
EXTT10=
EXTT11=
EXTT12=
EXTT13=
PLAYORDER=
